#define icon_width 8
#define icon_height 8
static unsigned char icon_bits[] = {
 0x3C, 0x6E, 0xE7, 0xFF, 0x07, 0x1F, 0x7E, 0x3C };
